<svg width="32" height="32" viewBox="0 0 32 32" fill="none" xmlns="http://www.w3.org/2000/svg">
<path d="M8.8 2C5 2 2 5 2 8.7V18.8V23C5.1 20.3 9.1 18.8 13.3 18.8H17.3C21 18.8 24.1 15.8 24.1 12.1V8.7C24 5 21 2 17.2 2H8.8Z" stroke="white" stroke-width="2" stroke-miterlimit="10" stroke-linecap="round" stroke-linejoin="round"/>
<path d="M14.8 9C11 9 8 12 8 15.7V25.8V30C11.1 27.3 15.1 25.8 19.3 25.8H23.3C27 25.8 30.1 22.8 30.1 19.1V15.7C30 12 27 9 23.2 9H14.8Z" stroke="white" stroke-width="2" stroke-miterlimit="10" stroke-linecap="round" stroke-linejoin="round"/>
</svg>
